<?xml version="1.0" encoding="utf-8"?>
<!-- Generator: Adobe Illustrator 28.3.0, SVG Export Plug-In . SVG Version: 6.00 Build 0)  -->
<svg version="1.1" id="Capa_1" xmlns="http://www.w3.org/2000/svg" xmlns:xlink="http://www.w3.org/1999/xlink" x="0px" y="0px"
	 viewBox="0 0 375 375" style="enable-background:new 0 0 375 375;" xml:space="preserve">
<style type="text/css">
	.st0{fill:#e6e6dd;}
</style>
<g>
	<path class="st0" d="M222.53,29.25h83.63c22.49,0,38.82,5.64,48.99,16.9c10.17,11.27,15.25,29.64,15.25,55.1v13.96
		c0,30.12-10.53,48.12-31.59,54c12.92,3.43,22.01,11.39,27.28,23.88c5.26,12.49,7.9,29.02,7.9,49.59c0,33.55-4.91,58.96-14.72,76.23
		c-9.81,17.27-27.52,25.9-53.12,25.9h-83.63V29.25z M295.39,147.91c5.26,0,8.85-2.02,10.77-6.06c1.91-4.04,2.87-9.73,2.87-17.08
		V93.17c0-10.29-4.43-15.43-13.28-15.43h-12.92v70.17H295.39z M312.98,265.83v-39.31c0-9.55-1.38-16.77-4.13-21.67
		c-2.75-4.9-7.6-7.35-14.54-7.35h-11.48v91.47l6.1,0.37C304.96,289.34,312.98,281.51,312.98,265.83z"/>
</g>
<path class="st0" d="M200.98,344.81H0.11V29.25h200.88V344.81z M23.36,318.37h23.93v-70.74H23.36V318.37z M53.4,318.37h118.47
	v-70.74H53.4V318.37z M83.45,126.02c3.72,0,88.42,0,88.42,0V56.76H74.14c0,0-20.74,5.17-20.74,51.5s14.62,51.5,14.62,51.5H53.4
	v71.97h118.47v-71.97H83.45c0,0-9.31-1.9-9.31-15.78C74.14,130.1,79.73,126.02,83.45,126.02z"/>
</svg>
